<svg width="17" height="16" viewBox="0 0 17 16" fill="none" xmlns="http://www.w3.org/2000/svg">
<g clip-path="url(#clip0_1981_11997)">
<path d="M-2.57181 4.7627H17.9073V6.74029C17.9073 11.6978 14.8275 15.7166 11.0284 15.7166H4.3071C0.507984 15.7166 -2.57181 11.6978 -2.57181 6.74029V4.7627Z" fill="url(#paint0_linear_1981_11997)"/>
<path d="M-2.57181 4.7627H17.9073V6.74029C17.9073 11.6978 14.8275 15.7166 11.0284 15.7166H4.3071C0.507984 15.7166 -2.57181 11.6978 -2.57181 6.74029V4.7627Z" fill="url(#paint1_linear_1981_11997)"/>
<path d="M-2.57181 4.7627H17.9073V6.74029C17.9073 11.6978 14.8275 15.7166 11.0284 15.7166H4.3071C0.507984 15.7166 -2.57181 11.6978 -2.57181 6.74029V4.7627Z" fill="url(#paint2_linear_1981_11997)"/>
<path d="M-2.57181 4.7627H17.9073V6.74029C17.9073 11.6978 14.8275 15.7166 11.0284 15.7166H4.3071C0.507984 15.7166 -2.57181 11.6978 -2.57181 6.74029V4.7627Z" fill="url(#paint3_linear_1981_11997)"/>
<path d="M-2.57181 4.7627H17.9073V6.74029C17.9073 11.6978 14.8275 15.7166 11.0284 15.7166H4.3071C0.507984 15.7166 -2.57181 11.6978 -2.57181 6.74029V4.7627Z" fill="url(#paint4_linear_1981_11997)"/>
<path d="M-2.57181 4.7627H17.9073V6.74029C17.9073 11.6978 14.8275 15.7166 11.0284 15.7166H4.3071C0.507984 15.7166 -2.57181 11.6978 -2.57181 6.74029V4.7627Z" fill="url(#paint5_linear_1981_11997)"/>
<path d="M-2.57181 4.7627H17.9073V6.74029C17.9073 11.6978 14.8275 15.7166 11.0284 15.7166H4.3071C0.507984 15.7166 -2.57181 11.6978 -2.57181 6.74029V4.7627Z" fill="url(#paint6_linear_1981_11997)"/>
<path d="M-2.57181 4.7627H17.9073V6.74029C17.9073 11.6978 14.8275 15.7166 11.0284 15.7166H4.3071C0.507984 15.7166 -2.57181 11.6978 -2.57181 6.74029V4.7627Z" fill="url(#paint7_linear_1981_11997)"/>
<path d="M-2.57181 4.7627H17.9073V6.74029C17.9073 11.6978 14.8275 15.7166 11.0284 15.7166H4.3071C0.507984 15.7166 -2.57181 11.6978 -2.57181 6.74029V4.7627Z" fill="url(#paint8_linear_1981_11997)"/>
<path d="M7.24966 10.7268L-4.45931 4.74596C-5.19798 4.36866 -5.1968 3.31272 -4.45729 2.93707L7.25096 -3.01031C7.59269 -3.18389 7.99679 -3.18373 8.33838 -3.00987L20.0476 2.95004C20.7868 3.32629 20.7871 4.38223 20.0481 4.75893L8.34013 10.7272C7.99757 10.9019 7.59207 10.9017 7.24966 10.7268Z" fill="url(#paint9_linear_1981_11997)"/>
<path d="M7.24966 10.7268L-4.45931 4.74596C-5.19798 4.36866 -5.1968 3.31272 -4.45729 2.93707L7.25096 -3.01031C7.59269 -3.18389 7.99679 -3.18373 8.33838 -3.00987L20.0476 2.95004C20.7868 3.32629 20.7871 4.38223 20.0481 4.75893L8.34013 10.7272C7.99757 10.9019 7.59207 10.9017 7.24966 10.7268Z" fill="url(#paint10_linear_1981_11997)"/>
<path d="M7.24966 10.7268L-4.45931 4.74596C-5.19798 4.36866 -5.1968 3.31272 -4.45729 2.93707L7.25096 -3.01031C7.59269 -3.18389 7.99679 -3.18373 8.33838 -3.00987L20.0476 2.95004C20.7868 3.32629 20.7871 4.38223 20.0481 4.75893L8.34013 10.7272C7.99757 10.9019 7.59207 10.9017 7.24966 10.7268Z" fill="url(#paint11_linear_1981_11997)"/>
<path d="M7.24966 10.7268L-4.45931 4.74596C-5.19798 4.36866 -5.1968 3.31272 -4.45729 2.93707L7.25096 -3.01031C7.59269 -3.18389 7.99679 -3.18373 8.33838 -3.00987L20.0476 2.95004C20.7868 3.32629 20.7871 4.38223 20.0481 4.75893L8.34013 10.7272C7.99757 10.9019 7.59207 10.9017 7.24966 10.7268Z" fill="url(#paint12_radial_1981_11997)" fill-opacity="0.5"/>
<path d="M7.24966 10.7268L-4.45931 4.74596C-5.19798 4.36866 -5.1968 3.31272 -4.45729 2.93707L7.25096 -3.01031C7.59269 -3.18389 7.99679 -3.18373 8.33838 -3.00987L20.0476 2.95004C20.7868 3.32629 20.7871 4.38223 20.0481 4.75893L8.34013 10.7272C7.99757 10.9019 7.59207 10.9017 7.24966 10.7268Z" fill="url(#paint13_radial_1981_11997)" fill-opacity="0.7"/>
<path d="M7.24966 10.7268L-4.45931 4.74596C-5.19798 4.36866 -5.1968 3.31272 -4.45729 2.93707L7.25096 -3.01031C7.59269 -3.18389 7.99679 -3.18373 8.33838 -3.00987L20.0476 2.95004C20.7868 3.32629 20.7871 4.38223 20.0481 4.75893L8.34013 10.7272C7.99757 10.9019 7.59207 10.9017 7.24966 10.7268Z" fill="url(#paint14_radial_1981_11997)" fill-opacity="0.4"/>
<path d="M7.24966 10.7268L-4.45931 4.74596C-5.19798 4.36866 -5.1968 3.31272 -4.45729 2.93707L7.25096 -3.01031C7.59269 -3.18389 7.99679 -3.18373 8.33838 -3.00987L20.0476 2.95004C20.7868 3.32629 20.7871 4.38223 20.0481 4.75893L8.34013 10.7272C7.99757 10.9019 7.59207 10.9017 7.24966 10.7268Z" fill="url(#paint15_linear_1981_11997)" fill-opacity="0.7"/>
<path d="M7.24966 10.7268L-4.45931 4.74596C-5.19798 4.36866 -5.1968 3.31272 -4.45729 2.93707L7.25096 -3.01031C7.59269 -3.18389 7.99679 -3.18373 8.33838 -3.00987L20.0476 2.95004C20.7868 3.32629 20.7871 4.38223 20.0481 4.75893L8.34013 10.7272C7.99757 10.9019 7.59207 10.9017 7.24966 10.7268Z" fill="url(#paint16_linear_1981_11997)" fill-opacity="0.9"/>
<path d="M7.24966 10.7268L-4.45931 4.74596C-5.19798 4.36866 -5.1968 3.31272 -4.45729 2.93707L7.25096 -3.01031C7.59269 -3.18389 7.99679 -3.18373 8.33838 -3.00987L20.0476 2.95004C20.7868 3.32629 20.7871 4.38223 20.0481 4.75893L8.34013 10.7272C7.99757 10.9019 7.59207 10.9017 7.24966 10.7268Z" fill="url(#paint17_radial_1981_11997)" fill-opacity="0.8"/>
<path d="M7.24966 10.7268L-4.45931 4.74596C-5.19798 4.36866 -5.1968 3.31272 -4.45729 2.93707L7.25096 -3.01031C7.59269 -3.18389 7.99679 -3.18373 8.33838 -3.00987L20.0476 2.95004C20.7868 3.32629 20.7871 4.38223 20.0481 4.75893L8.34013 10.7272C7.99757 10.9019 7.59207 10.9017 7.24966 10.7268Z" fill="url(#paint18_radial_1981_11997)" fill-opacity="0.4"/>
<path d="M7.24966 10.7268L-4.45931 4.74596C-5.19798 4.36866 -5.1968 3.31272 -4.45729 2.93707L7.25096 -3.01031C7.59269 -3.18389 7.99679 -3.18373 8.33838 -3.00987L20.0476 2.95004C20.7868 3.32629 20.7871 4.38223 20.0481 4.75893L8.34013 10.7272C7.99757 10.9019 7.59207 10.9017 7.24966 10.7268Z" fill="url(#paint19_radial_1981_11997)" fill-opacity="0.2"/>
<path d="M7.24966 10.7268L-4.45931 4.74596C-5.19798 4.36866 -5.1968 3.31272 -4.45729 2.93707L7.25096 -3.01031C7.59269 -3.18389 7.99679 -3.18373 8.33838 -3.00987L20.0476 2.95004C20.7868 3.32629 20.7871 4.38223 20.0481 4.75893L8.34013 10.7272C7.99757 10.9019 7.59207 10.9017 7.24966 10.7268Z" fill="url(#paint20_radial_1981_11997)" fill-opacity="0.8"/>
<path d="M7.24966 10.7268L-4.45931 4.74596C-5.19798 4.36866 -5.1968 3.31272 -4.45729 2.93707L7.25096 -3.01031C7.59269 -3.18389 7.99679 -3.18373 8.33838 -3.00987L20.0476 2.95004C20.7868 3.32629 20.7871 4.38223 20.0481 4.75893L8.34013 10.7272C7.99757 10.9019 7.59207 10.9017 7.24966 10.7268Z" fill="url(#paint21_radial_1981_11997)" fill-opacity="0.3"/>
<path d="M13.8287 12.6416C13.2304 12.8867 12.9529 13.401 12.9529 13.9608C12.9529 14.8109 13.642 15.5 14.492 15.5C15.342 15.5 16.0311 14.8109 16.0311 13.9608C16.0311 13.401 15.7031 12.9011 15.1624 12.6416H13.8287Z" fill="url(#paint22_radial_1981_11997)"/>
<path d="M13.8287 12.6416C13.2304 12.8867 12.9529 13.401 12.9529 13.9608C12.9529 14.8109 13.642 15.5 14.492 15.5C15.342 15.5 16.0311 14.8109 16.0311 13.9608C16.0311 13.401 15.7031 12.9011 15.1624 12.6416H13.8287Z" fill="url(#paint23_radial_1981_11997)"/>
<path d="M13.8287 12.6416C13.2304 12.8867 12.9529 13.401 12.9529 13.9608C12.9529 14.8109 13.642 15.5 14.492 15.5C15.342 15.5 16.0311 14.8109 16.0311 13.9608C16.0311 13.401 15.7031 12.9011 15.1624 12.6416H13.8287Z" fill="url(#paint24_radial_1981_11997)"/>
<path d="M12.7278 17.4147L13.3169 14.9702H15.649L16.2498 17.3936C16.3021 17.5642 16.3302 17.7454 16.3302 17.9331C16.3302 18.9484 15.5072 19.7714 14.492 19.7714C13.4767 19.7714 12.6537 18.9484 12.6537 17.9331C12.6537 17.7531 12.6795 17.5791 12.7278 17.4147Z" fill="#FF9D4E"/>
<path d="M12.7278 17.4147L13.3169 14.9702H15.649L16.2498 17.3936C16.3021 17.5642 16.3302 17.7454 16.3302 17.9331C16.3302 18.9484 15.5072 19.7714 14.492 19.7714C13.4767 19.7714 12.6537 18.9484 12.6537 17.9331C12.6537 17.7531 12.6795 17.5791 12.7278 17.4147Z" fill="url(#paint25_linear_1981_11997)"/>
<path d="M12.7278 17.4147L13.3169 14.9702H15.649L16.2498 17.3936C16.3021 17.5642 16.3302 17.7454 16.3302 17.9331C16.3302 18.9484 15.5072 19.7714 14.492 19.7714C13.4767 19.7714 12.6537 18.9484 12.6537 17.9331C12.6537 17.7531 12.6795 17.5791 12.7278 17.4147Z" fill="url(#paint26_radial_1981_11997)"/>
<path d="M12.7278 17.4147L13.3169 14.9702H15.649L16.2498 17.3936C16.3021 17.5642 16.3302 17.7454 16.3302 17.9331C16.3302 18.9484 15.5072 19.7714 14.492 19.7714C13.4767 19.7714 12.6537 18.9484 12.6537 17.9331C12.6537 17.7531 12.6795 17.5791 12.7278 17.4147Z" fill="url(#paint27_radial_1981_11997)"/>
</g>
<path fill-rule="evenodd" clip-rule="evenodd" d="M7.36469 2.68529C7.53254 2.35614 7.93543 2.22538 8.26458 2.39323L13.6259 5.01465C14.6225 5.52285 15.2435 6.6142 15.2435 7.73289V13.125C15.2435 13.4945 14.8615 13.794 14.492 13.794C14.1225 13.794 13.823 13.4945 13.823 13.125V7.73289C13.823 7.11717 13.4777 6.55348 12.9292 6.27377L7.65676 3.58518C7.32761 3.41734 7.19685 3.01444 7.36469 2.68529Z" fill="url(#paint28_linear_1981_11997)"/>
<path fill-rule="evenodd" clip-rule="evenodd" d="M7.36469 2.68529C7.53254 2.35614 7.93543 2.22538 8.26458 2.39323L13.6259 5.01465C14.6225 5.52285 15.2435 6.6142 15.2435 7.73289V13.125C15.2435 13.4945 14.8615 13.794 14.492 13.794C14.1225 13.794 13.823 13.4945 13.823 13.125V7.73289C13.823 7.11717 13.4777 6.55348 12.9292 6.27377L7.65676 3.58518C7.32761 3.41734 7.19685 3.01444 7.36469 2.68529Z" fill="url(#paint29_radial_1981_11997)"/>
<path fill-rule="evenodd" clip-rule="evenodd" d="M7.36469 2.68529C7.53254 2.35614 7.93543 2.22538 8.26458 2.39323L13.6259 5.01465C14.6225 5.52285 15.2435 6.6142 15.2435 7.73289V13.125C15.2435 13.4945 14.8615 13.794 14.492 13.794C14.1225 13.794 13.823 13.4945 13.823 13.125V7.73289C13.823 7.11717 13.4777 6.55348 12.9292 6.27377L7.65676 3.58518C7.32761 3.41734 7.19685 3.01444 7.36469 2.68529Z" fill="url(#paint30_linear_1981_11997)"/>
<path fill-rule="evenodd" clip-rule="evenodd" d="M7.36469 2.68529C7.53254 2.35614 7.93543 2.22538 8.26458 2.39323L13.6259 5.01465C14.6225 5.52285 15.2435 6.6142 15.2435 7.73289V13.125C15.2435 13.4945 14.8615 13.794 14.492 13.794C14.1225 13.794 13.823 13.4945 13.823 13.125V7.73289C13.823 7.11717 13.4777 6.55348 12.9292 6.27377L7.65676 3.58518C7.32761 3.41734 7.19685 3.01444 7.36469 2.68529Z" fill="url(#paint31_linear_1981_11997)"/>
<path fill-rule="evenodd" clip-rule="evenodd" d="M7.36469 2.68529C7.53254 2.35614 7.93543 2.22538 8.26458 2.39323L13.6259 5.01465C14.6225 5.52285 15.2435 6.6142 15.2435 7.73289V13.125C15.2435 13.4945 14.8615 13.794 14.492 13.794C14.1225 13.794 13.823 13.4945 13.823 13.125V7.73289C13.823 7.11717 13.4777 6.55348 12.9292 6.27377L7.65676 3.58518C7.32761 3.41734 7.19685 3.01444 7.36469 2.68529Z" fill="url(#paint32_radial_1981_11997)"/>
<path fill-rule="evenodd" clip-rule="evenodd" d="M7.36469 2.68529C7.53254 2.35614 7.93543 2.22538 8.26458 2.39323L13.6259 5.01465C14.6225 5.52285 15.2435 6.6142 15.2435 7.73289V13.125C15.2435 13.4945 14.8615 13.794 14.492 13.794C14.1225 13.794 13.823 13.4945 13.823 13.125V7.73289C13.823 7.11717 13.4777 6.55348 12.9292 6.27377L7.65676 3.58518C7.32761 3.41734 7.19685 3.01444 7.36469 2.68529Z" fill="url(#paint33_radial_1981_11997)" fill-opacity="0.5"/>
<path fill-rule="evenodd" clip-rule="evenodd" d="M7.36469 2.68529C7.53254 2.35614 7.93543 2.22538 8.26458 2.39323L13.6259 5.01465C14.6225 5.52285 15.2435 6.6142 15.2435 7.73289V13.125C15.2435 13.4945 14.8615 13.794 14.492 13.794C14.1225 13.794 13.823 13.4945 13.823 13.125V7.73289C13.823 7.11717 13.4777 6.55348 12.9292 6.27377L7.65676 3.58518C7.32761 3.41734 7.19685 3.01444 7.36469 2.68529Z" fill="url(#paint34_radial_1981_11997)" fill-opacity="0.4"/>
<path fill-rule="evenodd" clip-rule="evenodd" d="M7.36469 2.68529C7.53254 2.35614 7.93543 2.22538 8.26458 2.39323L13.6259 5.01465C14.6225 5.52285 15.2435 6.6142 15.2435 7.73289V13.125C15.2435 13.4945 14.8615 13.794 14.492 13.794C14.1225 13.794 13.823 13.4945 13.823 13.125V7.73289C13.823 7.11717 13.4777 6.55348 12.9292 6.27377L7.65676 3.58518C7.32761 3.41734 7.19685 3.01444 7.36469 2.68529Z" fill="url(#paint35_radial_1981_11997)" fill-opacity="0.7"/>
<path d="M13.8287 12.6416C13.2304 12.8867 12.9529 13.401 12.9529 13.9608C12.9529 14.8109 13.0288 15.5 13.8787 15.5H14.4956H15.1124C15.9624 15.5 16.0383 14.8109 16.0383 13.9608C16.0383 13.401 15.7607 12.8867 15.1624 12.6416H14.4956H13.8287Z" fill="url(#paint36_radial_1981_11997)"/>
<path d="M13.8287 12.6416C13.2304 12.8867 12.9529 13.401 12.9529 13.9608C12.9529 14.8109 13.0288 15.5 13.8787 15.5H14.4956H15.1124C15.9624 15.5 16.0383 14.8109 16.0383 13.9608C16.0383 13.401 15.7607 12.8867 15.1624 12.6416H14.4956H13.8287Z" fill="url(#paint37_radial_1981_11997)"/>
<path d="M13.8287 12.6416C13.2304 12.8867 12.9529 13.401 12.9529 13.9608C12.9529 14.8109 13.0288 15.5 13.8787 15.5H14.4956H15.1124C15.9624 15.5 16.0383 14.8109 16.0383 13.9608C16.0383 13.401 15.7607 12.8867 15.1624 12.6416H14.4956H13.8287Z" fill="url(#paint38_radial_1981_11997)"/>
<defs>
<linearGradient id="paint0_linear_1981_11997" x1="16.9041" y1="10.2397" x2="-1.43966" y2="10.2397" gradientUnits="userSpaceOnUse">
<stop stop-color="#68518B"/>
<stop stop-color="#A468FF"/>
<stop offset="0.44375" stop-color="#9A6BE2"/>
<stop offset="0.909375" stop-color="#5C329E"/>
</linearGradient>
<linearGradient id="paint1_linear_1981_11997" x1="8.91249" y1="16.1339" x2="8.91249" y2="14.5159" gradientUnits="userSpaceOnUse">
<stop offset="0.213939" stop-color="#8265AE"/>
<stop offset="0.627716" stop-color="#8265AE" stop-opacity="0"/>
</linearGradient>
<linearGradient id="paint2_linear_1981_11997" x1="13.7251" y1="15.7166" x2="13.3453" y2="14.0247" gradientUnits="userSpaceOnUse">
<stop offset="0.213939" stop-color="#8265AE"/>
<stop offset="0.669614" stop-color="#8265AE" stop-opacity="0"/>
</linearGradient>
<linearGradient id="paint3_linear_1981_11997" x1="14.5127" y1="15.498" x2="13.1537" y2="14.1872" gradientUnits="userSpaceOnUse">
<stop offset="0.213939" stop-color="#8265AE"/>
<stop offset="0.669614" stop-color="#8265AE" stop-opacity="0"/>
</linearGradient>
<linearGradient id="paint4_linear_1981_11997" x1="2.46593" y1="16.2154" x2="3.20388" y2="13.7952" gradientUnits="userSpaceOnUse">
<stop offset="0.287504" stop-color="#8265AE"/>
<stop offset="0.510172" stop-color="#8265AE" stop-opacity="0"/>
</linearGradient>
<linearGradient id="paint5_linear_1981_11997" x1="1.15114" y1="15.7166" x2="2.56871" y2="14.0982" gradientUnits="userSpaceOnUse">
<stop offset="0.213939" stop-color="#8265AE"/>
<stop offset="0.494627" stop-color="#8265AE" stop-opacity="0"/>
</linearGradient>
<linearGradient id="paint6_linear_1981_11997" x1="15.8277" y1="14.8737" x2="13.9848" y2="13.8722" gradientUnits="userSpaceOnUse">
<stop offset="0.213939" stop-color="#8265AE"/>
<stop offset="0.565866" stop-color="#8265AE" stop-opacity="0"/>
</linearGradient>
<linearGradient id="paint7_linear_1981_11997" x1="17.9073" y1="10.4289" x2="15.7981" y2="9.81698" gradientUnits="userSpaceOnUse">
<stop offset="0.213939" stop-color="#8265AE"/>
<stop offset="0.457665" stop-color="#8265AE" stop-opacity="0"/>
</linearGradient>
<linearGradient id="paint8_linear_1981_11997" x1="18.3567" y1="9.27127" x2="16.1987" y2="9.14877" gradientUnits="userSpaceOnUse">
<stop offset="0.213939" stop-color="#8265AE"/>
<stop offset="0.457665" stop-color="#8265AE" stop-opacity="0"/>
</linearGradient>
<linearGradient id="paint9_linear_1981_11997" x1="19.1562" y1="3.85886" x2="-0.156695" y2="3.85886" gradientUnits="userSpaceOnUse">
<stop stop-color="#655676"/>
<stop offset="1" stop-color="#2D2635"/>
</linearGradient>
<linearGradient id="paint10_linear_1981_11997" x1="14.9173" y1="7.48726" x2="14.0467" y2="5.82248" gradientUnits="userSpaceOnUse">
<stop offset="0.0945294" stop-color="#5E417D"/>
<stop offset="0.305542" stop-color="#5E417D" stop-opacity="0.55"/>
<stop offset="0.63958" stop-color="white" stop-opacity="0.21"/>
<stop offset="1" stop-color="#5E417D" stop-opacity="0"/>
</linearGradient>
<linearGradient id="paint11_linear_1981_11997" x1="1.28043" y1="8.02755" x2="2.8883" y2="4.79999" gradientUnits="userSpaceOnUse">
<stop offset="0.0602626" stop-color="#553578" stop-opacity="0.92"/>
<stop offset="0.190937" stop-color="#271D34" stop-opacity="0.72"/>
<stop offset="0.289017" stop-color="#281D38" stop-opacity="0.78"/>
<stop offset="0.477925" stop-color="#281D38" stop-opacity="0"/>
</linearGradient>
<radialGradient id="paint12_radial_1981_11997" cx="0" cy="0" r="1" gradientUnits="userSpaceOnUse" gradientTransform="translate(7.66501 10.0178) rotate(177.31) scale(1.39085 1.16252)">
<stop stop-color="#291E39"/>
<stop offset="0.592241" stop-color="#2B213A" stop-opacity="0"/>
</radialGradient>
<radialGradient id="paint13_radial_1981_11997" cx="0" cy="0" r="1" gradientUnits="userSpaceOnUse" gradientTransform="translate(8.05732 10.8581) rotate(62.0641) scale(0.912463 2.61193)">
<stop offset="0.472951" stop-color="#5D417A" stop-opacity="0.99"/>
<stop offset="1" stop-color="#5D417B" stop-opacity="0"/>
</radialGradient>
<radialGradient id="paint14_radial_1981_11997" cx="0" cy="0" r="1" gradientUnits="userSpaceOnUse" gradientTransform="translate(7.90923 11.1563) rotate(74.1688) scale(0.880088 4.2256)">
<stop offset="0.472951" stop-color="#704999" stop-opacity="0.99"/>
<stop offset="1" stop-color="#704999" stop-opacity="0"/>
</radialGradient>
<linearGradient id="paint15_linear_1981_11997" x1="16.6515" y1="1.04993" x2="16.1403" y2="2.06309" gradientUnits="userSpaceOnUse">
<stop offset="0.0945294" stop-color="#5E417D"/>
<stop offset="0.622903" stop-color="#5E417D" stop-opacity="0"/>
</linearGradient>
<linearGradient id="paint16_linear_1981_11997" x1="20.6022" y1="3.62034" x2="19.4183" y2="4.03272" gradientUnits="userSpaceOnUse">
<stop offset="0.220071" stop-color="#5E417D"/>
<stop offset="0.547178" stop-color="#5E417D" stop-opacity="0"/>
</linearGradient>
<radialGradient id="paint17_radial_1981_11997" cx="0" cy="0" r="1" gradientUnits="userSpaceOnUse" gradientTransform="translate(10.1386 4.252) rotate(111.317) scale(1.25562 4.54238)">
<stop offset="0.643211" stop-color="#2F243E" stop-opacity="0.82"/>
<stop offset="1" stop-color="#443149" stop-opacity="0"/>
</radialGradient>
<radialGradient id="paint18_radial_1981_11997" cx="0" cy="0" r="1" gradientUnits="userSpaceOnUse" gradientTransform="translate(10.8155 4.47143) rotate(123.659) scale(1.15174 5.22446)">
<stop offset="0.535842" stop-color="#2F243E" stop-opacity="0.82"/>
<stop offset="0.698285" stop-color="#2F243E" stop-opacity="0.56"/>
<stop offset="1" stop-color="#443149" stop-opacity="0"/>
</radialGradient>
<radialGradient id="paint19_radial_1981_11997" cx="0" cy="0" r="1" gradientUnits="userSpaceOnUse" gradientTransform="translate(10.7897 4.73288) rotate(122.793) scale(1.17755 6.22443)">
<stop offset="0.535842" stop-color="#2F243E" stop-opacity="0.82"/>
<stop offset="0.802784" stop-color="#2F243E" stop-opacity="0"/>
</radialGradient>
<radialGradient id="paint20_radial_1981_11997" cx="0" cy="0" r="1" gradientUnits="userSpaceOnUse" gradientTransform="translate(13.7239 7.20087) rotate(168.236) scale(1.16097 4.03392)">
<stop offset="0.0687201" stop-color="#463459"/>
<stop offset="0.376541" stop-color="#463459" stop-opacity="0.44"/>
<stop offset="0.500285" stop-color="#463459" stop-opacity="0"/>
</radialGradient>
<radialGradient id="paint21_radial_1981_11997" cx="0" cy="0" r="1" gradientUnits="userSpaceOnUse" gradientTransform="translate(13.7824 7.39973) rotate(178.187) scale(1.19567 1.78538)">
<stop offset="0.525084" stop-color="#463459" stop-opacity="0.65"/>
<stop offset="0.767696" stop-color="#463459" stop-opacity="0"/>
</radialGradient>
<radialGradient id="paint22_radial_1981_11997" cx="0" cy="0" r="1" gradientUnits="userSpaceOnUse" gradientTransform="translate(15.4298 13.4886) rotate(137.337) scale(1.91527 2.0626)">
<stop stop-color="#FFCC6C"/>
<stop offset="1" stop-color="#F49041"/>
</radialGradient>
<radialGradient id="paint23_radial_1981_11997" cx="0" cy="0" r="1" gradientUnits="userSpaceOnUse" gradientTransform="translate(15.6942 14.3166) rotate(-157.449) scale(3.43742 2.7648)">
<stop offset="0.6" stop-color="#B25D41" stop-opacity="0"/>
<stop offset="0.910505" stop-color="#B25D41"/>
</radialGradient>
<radialGradient id="paint24_radial_1981_11997" cx="0" cy="0" r="1" gradientUnits="userSpaceOnUse" gradientTransform="translate(13.2998 15.043) rotate(-8.85796) scale(2.09656 1.01916)">
<stop stop-color="#FD805E"/>
<stop offset="1" stop-color="#FD805E" stop-opacity="0"/>
</radialGradient>
<linearGradient id="paint25_linear_1981_11997" x1="12.8424" y1="17.3708" x2="14.2414" y2="17.5989" gradientUnits="userSpaceOnUse">
<stop stop-color="#D17047"/>
<stop offset="1" stop-color="#D17047" stop-opacity="0"/>
</linearGradient>
<radialGradient id="paint26_radial_1981_11997" cx="0" cy="0" r="1" gradientUnits="userSpaceOnUse" gradientTransform="translate(15.3713 14.7202) rotate(90) scale(4.0355 1.23755)">
<stop offset="0.566667" stop-color="#FFBC6E"/>
<stop offset="1" stop-color="#FFBC6E" stop-opacity="0"/>
</radialGradient>
<radialGradient id="paint27_radial_1981_11997" cx="0" cy="0" r="1" gradientUnits="userSpaceOnUse" gradientTransform="translate(13.8109 19.7714) rotate(-77.3666) scale(2.46015 2.84075)">
<stop offset="0.165333" stop-color="#FF697E"/>
<stop offset="1" stop-color="#FF697E" stop-opacity="0"/>
</radialGradient>
<linearGradient id="paint28_linear_1981_11997" x1="9.0708" y1="2.77293" x2="14.7226" y2="13.794" gradientUnits="userSpaceOnUse">
<stop stop-color="#D3A543"/>
<stop offset="1" stop-color="#FFBA62"/>
</linearGradient>
<radialGradient id="paint29_radial_1981_11997" cx="0" cy="0" r="1" gradientUnits="userSpaceOnUse" gradientTransform="translate(7.61447 2.03481) rotate(26.9588) scale(3.59398 2.24046)">
<stop stop-color="#D0A745"/>
<stop offset="1" stop-color="#D0A745" stop-opacity="0"/>
</radialGradient>
<linearGradient id="paint30_linear_1981_11997" x1="15.5402" y1="9.1873" x2="14.4356" y2="9.27015" gradientUnits="userSpaceOnUse">
<stop stop-color="#FFD574"/>
<stop offset="1" stop-color="#FFD574" stop-opacity="0"/>
</linearGradient>
<linearGradient id="paint31_linear_1981_11997" x1="13.5243" y1="4.67212" x2="13.0962" y2="5.48678" gradientUnits="userSpaceOnUse">
<stop stop-color="#FFD574"/>
<stop offset="1" stop-color="#FFD574" stop-opacity="0"/>
</linearGradient>
<radialGradient id="paint32_radial_1981_11997" cx="0" cy="0" r="1" gradientUnits="userSpaceOnUse" gradientTransform="translate(13.7017 12.4523) rotate(-90.2535) scale(5.67443 0.831444)">
<stop stop-color="#A84A17"/>
<stop offset="1" stop-color="#D07442" stop-opacity="0"/>
</radialGradient>
<radialGradient id="paint33_radial_1981_11997" cx="0" cy="0" r="1" gradientUnits="userSpaceOnUse" gradientTransform="translate(13.8538 9.09121) rotate(-90.4692) scale(3.24237 0.663867)">
<stop stop-color="#A84A17"/>
<stop offset="1" stop-color="#D07442" stop-opacity="0"/>
</radialGradient>
<radialGradient id="paint34_radial_1981_11997" cx="0" cy="0" r="1" gradientUnits="userSpaceOnUse" gradientTransform="translate(9.60756 4.61854) rotate(25.0263) scale(5.7709 0.271846)">
<stop offset="0.140165" stop-color="#A84A17"/>
<stop offset="0.640759" stop-color="#D07442" stop-opacity="0"/>
</radialGradient>
<radialGradient id="paint35_radial_1981_11997" cx="0" cy="0" r="1" gradientUnits="userSpaceOnUse" gradientTransform="translate(11.3086 8.05706) rotate(-14.8987) scale(3.80905 3.18198)">
<stop offset="0.60255" stop-color="#A84A17"/>
<stop offset="0.798021" stop-color="#D07442" stop-opacity="0"/>
</radialGradient>
<radialGradient id="paint36_radial_1981_11997" cx="0" cy="0" r="1" gradientUnits="userSpaceOnUse" gradientTransform="translate(15.4356 13.4886) rotate(137.404) scale(1.9177 2.06481)">
<stop stop-color="#FFCC6C"/>
<stop offset="1" stop-color="#F49041"/>
</radialGradient>
<radialGradient id="paint37_radial_1981_11997" cx="0" cy="0" r="1" gradientUnits="userSpaceOnUse" gradientTransform="translate(15.7006 14.3166) rotate(-157.497) scale(3.44429 2.76575)">
<stop offset="0.6" stop-color="#B25D41" stop-opacity="0"/>
<stop offset="0.910505" stop-color="#B25D41"/>
</radialGradient>
<radialGradient id="paint38_radial_1981_11997" cx="0" cy="0" r="1" gradientUnits="userSpaceOnUse" gradientTransform="translate(13.3006 15.043) rotate(-8.8376) scale(2.10136 1.01922)">
<stop stop-color="#FD805E"/>
<stop offset="1" stop-color="#FD805E" stop-opacity="0"/>
</radialGradient>
<clipPath id="clip0_1981_11997">
<rect width="15.2402" height="15.2402" rx="3" fill="white"/>
</clipPath>
</defs>
</svg>
