<svg width="196" height="41" viewBox="0 0 196 41" fill="none" xmlns="http://www.w3.org/2000/svg">
    <rect width="40" height="40" rx="15" fill="white" />
    <g clip-path="url(#clip0_197_14218)">
        <path
            d="M-6.75003 12.5H47V17.6905C47 30.702 38.9167 41.25 28.9454 41.25H11.3046C1.33328 41.25 -6.75003 30.702 -6.75003 17.6905V12.5Z"
            fill="url(#paint0_linear_197_14218)" />
        <path
            d="M-6.75003 12.5H47V17.6905C47 30.702 38.9167 41.25 28.9454 41.25H11.3046C1.33328 41.25 -6.75003 30.702 -6.75003 17.6905V12.5Z"
            fill="url(#paint1_linear_197_14218)" />
        <path
            d="M-6.75003 12.5H47V17.6905C47 30.702 38.9167 41.25 28.9454 41.25H11.3046C1.33328 41.25 -6.75003 30.702 -6.75003 17.6905V12.5Z"
            fill="url(#paint2_linear_197_14218)" />
        <path
            d="M-6.75003 12.5H47V17.6905C47 30.702 38.9167 41.25 28.9454 41.25H11.3046C1.33328 41.25 -6.75003 30.702 -6.75003 17.6905V12.5Z"
            fill="url(#paint3_linear_197_14218)" />
        <path
            d="M-6.75003 12.5H47V17.6905C47 30.702 38.9167 41.25 28.9454 41.25H11.3046C1.33328 41.25 -6.75003 30.702 -6.75003 17.6905V12.5Z"
            fill="url(#paint4_linear_197_14218)" />
        <path
            d="M-6.75003 12.5H47V17.6905C47 30.702 38.9167 41.25 28.9454 41.25H11.3046C1.33328 41.25 -6.75003 30.702 -6.75003 17.6905V12.5Z"
            fill="url(#paint5_linear_197_14218)" />
        <path
            d="M-6.75003 12.5H47V17.6905C47 30.702 38.9167 41.25 28.9454 41.25H11.3046C1.33328 41.25 -6.75003 30.702 -6.75003 17.6905V12.5Z"
            fill="url(#paint6_linear_197_14218)" />
        <path
            d="M-6.75003 12.5H47V17.6905C47 30.702 38.9167 41.25 28.9454 41.25H11.3046C1.33328 41.25 -6.75003 30.702 -6.75003 17.6905V12.5Z"
            fill="url(#paint7_linear_197_14218)" />
        <path
            d="M-6.75003 12.5H47V17.6905C47 30.702 38.9167 41.25 28.9454 41.25H11.3046C1.33328 41.25 -6.75003 30.702 -6.75003 17.6905V12.5Z"
            fill="url(#paint8_linear_197_14218)" />
        <path
            d="M19.0277 28.1538L-11.7041 12.4563C-13.6428 11.466 -13.6397 8.69452 -11.6987 7.70858L19.0311 -7.90109C19.928 -8.35668 20.9886 -8.35625 21.8851 -7.89992L52.6175 7.74262C54.5576 8.73014 54.5585 11.5016 52.6189 12.4903L21.8897 28.1549C20.9907 28.6132 19.9264 28.6128 19.0277 28.1538Z"
            fill="url(#paint9_linear_197_14218)" />
        <path
            d="M19.0277 28.1538L-11.7041 12.4563C-13.6428 11.466 -13.6397 8.69452 -11.6987 7.70858L19.0311 -7.90109C19.928 -8.35668 20.9886 -8.35625 21.8851 -7.89992L52.6175 7.74262C54.5576 8.73014 54.5585 11.5016 52.6189 12.4903L21.8897 28.1549C20.9907 28.6132 19.9264 28.6128 19.0277 28.1538Z"
            fill="url(#paint10_linear_197_14218)" />
        <path
            d="M19.0277 28.1538L-11.7041 12.4563C-13.6428 11.466 -13.6397 8.69452 -11.6987 7.70858L19.0311 -7.90109C19.928 -8.35668 20.9886 -8.35625 21.8851 -7.89992L52.6175 7.74262C54.5576 8.73014 54.5585 11.5016 52.6189 12.4903L21.8897 28.1549C20.9907 28.6132 19.9264 28.6128 19.0277 28.1538Z"
            fill="url(#paint11_linear_197_14218)" />
        <path
            d="M19.0277 28.1538L-11.7041 12.4563C-13.6428 11.466 -13.6397 8.69452 -11.6987 7.70858L19.0311 -7.90109C19.928 -8.35668 20.9886 -8.35625 21.8851 -7.89992L52.6175 7.74262C54.5576 8.73014 54.5585 11.5016 52.6189 12.4903L21.8897 28.1549C20.9907 28.6132 19.9264 28.6128 19.0277 28.1538Z"
            fill="url(#paint12_radial_197_14218)" fill-opacity="0.5" />
        <path
            d="M19.0277 28.1538L-11.7041 12.4563C-13.6428 11.466 -13.6397 8.69452 -11.6987 7.70858L19.0311 -7.90109C19.928 -8.35668 20.9886 -8.35625 21.8851 -7.89992L52.6175 7.74262C54.5576 8.73014 54.5585 11.5016 52.6189 12.4903L21.8897 28.1549C20.9907 28.6132 19.9264 28.6128 19.0277 28.1538Z"
            fill="url(#paint13_radial_197_14218)" fill-opacity="0.7" />
        <path
            d="M19.0277 28.1538L-11.7041 12.4563C-13.6428 11.466 -13.6397 8.69452 -11.6987 7.70858L19.0311 -7.90109C19.928 -8.35668 20.9886 -8.35625 21.8851 -7.89992L52.6175 7.74262C54.5576 8.73014 54.5585 11.5016 52.6189 12.4903L21.8897 28.1549C20.9907 28.6132 19.9264 28.6128 19.0277 28.1538Z"
            fill="url(#paint14_radial_197_14218)" fill-opacity="0.4" />
        <path
            d="M19.0277 28.1538L-11.7041 12.4563C-13.6428 11.466 -13.6397 8.69452 -11.6987 7.70858L19.0311 -7.90109C19.928 -8.35668 20.9886 -8.35625 21.8851 -7.89992L52.6175 7.74262C54.5576 8.73014 54.5585 11.5016 52.6189 12.4903L21.8897 28.1549C20.9907 28.6132 19.9264 28.6128 19.0277 28.1538Z"
            fill="url(#paint15_linear_197_14218)" fill-opacity="0.7" />
        <path
            d="M19.0277 28.1538L-11.7041 12.4563C-13.6428 11.466 -13.6397 8.69452 -11.6987 7.70858L19.0311 -7.90109C19.928 -8.35668 20.9886 -8.35625 21.8851 -7.89992L52.6175 7.74262C54.5576 8.73014 54.5585 11.5016 52.6189 12.4903L21.8897 28.1549C20.9907 28.6132 19.9264 28.6128 19.0277 28.1538Z"
            fill="url(#paint16_linear_197_14218)" fill-opacity="0.9" />
        <path
            d="M19.0277 28.1538L-11.7041 12.4563C-13.6428 11.466 -13.6397 8.69452 -11.6987 7.70858L19.0311 -7.90109C19.928 -8.35668 20.9886 -8.35625 21.8851 -7.89992L52.6175 7.74262C54.5576 8.73014 54.5585 11.5016 52.6189 12.4903L21.8897 28.1549C20.9907 28.6132 19.9264 28.6128 19.0277 28.1538Z"
            fill="url(#paint17_radial_197_14218)" fill-opacity="0.8" />
        <path
            d="M19.0277 28.1538L-11.7041 12.4563C-13.6428 11.466 -13.6397 8.69452 -11.6987 7.70858L19.0311 -7.90109C19.928 -8.35668 20.9886 -8.35625 21.8851 -7.89992L52.6175 7.74262C54.5576 8.73014 54.5585 11.5016 52.6189 12.4903L21.8897 28.1549C20.9907 28.6132 19.9264 28.6128 19.0277 28.1538Z"
            fill="url(#paint18_radial_197_14218)" fill-opacity="0.4" />
        <path
            d="M19.0277 28.1538L-11.7041 12.4563C-13.6428 11.466 -13.6397 8.69452 -11.6987 7.70858L19.0311 -7.90109C19.928 -8.35668 20.9886 -8.35625 21.8851 -7.89992L52.6175 7.74262C54.5576 8.73014 54.5585 11.5016 52.6189 12.4903L21.8897 28.1549C20.9907 28.6132 19.9264 28.6128 19.0277 28.1538Z"
            fill="url(#paint19_radial_197_14218)" fill-opacity="0.2" />
        <path
            d="M19.0277 28.1538L-11.7041 12.4563C-13.6428 11.466 -13.6397 8.69452 -11.6987 7.70858L19.0311 -7.90109C19.928 -8.35668 20.9886 -8.35625 21.8851 -7.89992L52.6175 7.74262C54.5576 8.73014 54.5585 11.5016 52.6189 12.4903L21.8897 28.1549C20.9907 28.6132 19.9264 28.6128 19.0277 28.1538Z"
            fill="url(#paint20_radial_197_14218)" fill-opacity="0.8" />
        <path
            d="M19.0277 28.1538L-11.7041 12.4563C-13.6428 11.466 -13.6397 8.69452 -11.6987 7.70858L19.0311 -7.90109C19.928 -8.35668 20.9886 -8.35625 21.8851 -7.89992L52.6175 7.74262C54.5576 8.73014 54.5585 11.5016 52.6189 12.4903L21.8897 28.1549C20.9907 28.6132 19.9264 28.6128 19.0277 28.1538Z"
            fill="url(#paint21_radial_197_14218)" fill-opacity="0.3" />
        <path
            d="M36.2953 33.1795C34.7249 33.8228 33.9964 35.1726 33.9964 36.642C33.9964 38.873 35.8051 40.6816 38.036 40.6816C40.2669 40.6816 42.0757 38.873 42.0757 36.642C42.0757 35.1726 41.2148 33.8607 39.7957 33.1795H36.2953Z"
            fill="url(#paint22_radial_197_14218)" />
        <path
            d="M36.2953 33.1795C34.7249 33.8228 33.9964 35.1726 33.9964 36.642C33.9964 38.873 35.8051 40.6816 38.036 40.6816C40.2669 40.6816 42.0757 38.873 42.0757 36.642C42.0757 35.1726 41.2148 33.8607 39.7957 33.1795H36.2953Z"
            fill="url(#paint23_radial_197_14218)" />
        <path
            d="M36.2953 33.1795C34.7249 33.8228 33.9964 35.1726 33.9964 36.642C33.9964 38.873 35.8051 40.6816 38.036 40.6816C40.2669 40.6816 42.0757 38.873 42.0757 36.642C42.0757 35.1726 41.2148 33.8607 39.7957 33.1795H36.2953Z"
            fill="url(#paint24_radial_197_14218)" />
        <path
            d="M33.4057 45.7067L34.9519 39.291H41.0728L42.6498 45.6515C42.787 46.0993 42.8609 46.5747 42.8609 47.0674C42.8609 49.7321 40.7007 51.8923 38.036 51.8923C35.3714 51.8923 33.2112 49.7321 33.2112 47.0674C33.2112 46.5949 33.2791 46.1383 33.4057 45.7067Z"
            fill="#FF9D4E" />
        <path
            d="M33.4057 45.7067L34.9519 39.291H41.0728L42.6498 45.6515C42.787 46.0993 42.8609 46.5747 42.8609 47.0674C42.8609 49.7321 40.7007 51.8923 38.036 51.8923C35.3714 51.8923 33.2112 49.7321 33.2112 47.0674C33.2112 46.5949 33.2791 46.1383 33.4057 45.7067Z"
            fill="url(#paint25_linear_197_14218)" />
        <path
            d="M33.4057 45.7067L34.9519 39.291H41.0728L42.6498 45.6515C42.787 46.0993 42.8609 46.5747 42.8609 47.0674C42.8609 49.7321 40.7007 51.8923 38.036 51.8923C35.3714 51.8923 33.2112 49.7321 33.2112 47.0674C33.2112 46.5949 33.2791 46.1383 33.4057 45.7067Z"
            fill="url(#paint26_radial_197_14218)" />
        <path
            d="M33.4057 45.7067L34.9519 39.291H41.0728L42.6498 45.6515C42.787 46.0993 42.8609 46.5747 42.8609 47.0674C42.8609 49.7321 40.7007 51.8923 38.036 51.8923C35.3714 51.8923 33.2112 49.7321 33.2112 47.0674C33.2112 46.5949 33.2791 46.1383 33.4057 45.7067Z"
            fill="url(#paint27_radial_197_14218)" />
    </g>
    <path fill-rule="evenodd" clip-rule="evenodd"
        d="M19.3296 7.04814C19.7701 6.18424 20.8276 5.84103 21.6915 6.28156L35.763 13.1618C38.3787 14.4957 40.0084 17.3601 40.0084 20.2962V34.4486C40.0084 35.4183 39.0059 36.2044 38.0361 36.2044C37.0664 36.2044 36.2803 35.4183 36.2803 34.4486V20.2962C36.2803 18.6802 35.374 17.2007 33.9343 16.4666L20.0962 9.41001C19.2323 8.96948 18.8891 7.91203 19.3296 7.04814Z"
        fill="url(#paint28_linear_197_14218)" />
    <path fill-rule="evenodd" clip-rule="evenodd"
        d="M19.3296 7.04814C19.7701 6.18424 20.8276 5.84103 21.6915 6.28156L35.763 13.1618C38.3787 14.4957 40.0084 17.3601 40.0084 20.2962V34.4486C40.0084 35.4183 39.0059 36.2044 38.0361 36.2044C37.0664 36.2044 36.2803 35.4183 36.2803 34.4486V20.2962C36.2803 18.6802 35.374 17.2007 33.9343 16.4666L20.0962 9.41001C19.2323 8.96948 18.8891 7.91203 19.3296 7.04814Z"
        fill="url(#paint29_radial_197_14218)" />
    <path fill-rule="evenodd" clip-rule="evenodd"
        d="M19.3296 7.04814C19.7701 6.18424 20.8276 5.84103 21.6915 6.28156L35.763 13.1618C38.3787 14.4957 40.0084 17.3601 40.0084 20.2962V34.4486C40.0084 35.4183 39.0059 36.2044 38.0361 36.2044C37.0664 36.2044 36.2803 35.4183 36.2803 34.4486V20.2962C36.2803 18.6802 35.374 17.2007 33.9343 16.4666L20.0962 9.41001C19.2323 8.96948 18.8891 7.91203 19.3296 7.04814Z"
        fill="url(#paint30_linear_197_14218)" />
    <path fill-rule="evenodd" clip-rule="evenodd"
        d="M19.3296 7.04814C19.7701 6.18424 20.8276 5.84103 21.6915 6.28156L35.763 13.1618C38.3787 14.4957 40.0084 17.3601 40.0084 20.2962V34.4486C40.0084 35.4183 39.0059 36.2044 38.0361 36.2044C37.0664 36.2044 36.2803 35.4183 36.2803 34.4486V20.2962C36.2803 18.6802 35.374 17.2007 33.9343 16.4666L20.0962 9.41001C19.2323 8.96948 18.8891 7.91203 19.3296 7.04814Z"
        fill="url(#paint31_linear_197_14218)" />
    <path fill-rule="evenodd" clip-rule="evenodd"
        d="M19.3296 7.04814C19.7701 6.18424 20.8276 5.84103 21.6915 6.28156L35.763 13.1618C38.3787 14.4957 40.0084 17.3601 40.0084 20.2962V34.4486C40.0084 35.4183 39.0059 36.2044 38.0361 36.2044C37.0664 36.2044 36.2803 35.4183 36.2803 34.4486V20.2962C36.2803 18.6802 35.374 17.2007 33.9343 16.4666L20.0962 9.41001C19.2323 8.96948 18.8891 7.91203 19.3296 7.04814Z"
        fill="url(#paint32_radial_197_14218)" />
    <path fill-rule="evenodd" clip-rule="evenodd"
        d="M19.3296 7.04814C19.7701 6.18424 20.8276 5.84103 21.6915 6.28156L35.763 13.1618C38.3787 14.4957 40.0084 17.3601 40.0084 20.2962V34.4486C40.0084 35.4183 39.0059 36.2044 38.0361 36.2044C37.0664 36.2044 36.2803 35.4183 36.2803 34.4486V20.2962C36.2803 18.6802 35.374 17.2007 33.9343 16.4666L20.0962 9.41001C19.2323 8.96948 18.8891 7.91203 19.3296 7.04814Z"
        fill="url(#paint33_radial_197_14218)" fill-opacity="0.5" />
    <path fill-rule="evenodd" clip-rule="evenodd"
        d="M19.3296 7.04814C19.7701 6.18424 20.8276 5.84103 21.6915 6.28156L35.763 13.1618C38.3787 14.4957 40.0084 17.3601 40.0084 20.2962V34.4486C40.0084 35.4183 39.0059 36.2044 38.0361 36.2044C37.0664 36.2044 36.2803 35.4183 36.2803 34.4486V20.2962C36.2803 18.6802 35.374 17.2007 33.9343 16.4666L20.0962 9.41001C19.2323 8.96948 18.8891 7.91203 19.3296 7.04814Z"
        fill="url(#paint34_radial_197_14218)" fill-opacity="0.4" />
    <path fill-rule="evenodd" clip-rule="evenodd"
        d="M19.3296 7.04814C19.7701 6.18424 20.8276 5.84103 21.6915 6.28156L35.763 13.1618C38.3787 14.4957 40.0084 17.3601 40.0084 20.2962V34.4486C40.0084 35.4183 39.0059 36.2044 38.0361 36.2044C37.0664 36.2044 36.2803 35.4183 36.2803 34.4486V20.2962C36.2803 18.6802 35.374 17.2007 33.9343 16.4666L20.0962 9.41001C19.2323 8.96948 18.8891 7.91203 19.3296 7.04814Z"
        fill="url(#paint35_radial_197_14218)" fill-opacity="0.7" />
    <path
        d="M36.2953 33.1795C34.7249 33.8228 33.9964 35.1726 33.9964 36.642C33.9964 38.873 34.1957 40.6816 36.4266 40.6816H38.0455H39.6644C41.8953 40.6816 42.0946 38.873 42.0946 36.642C42.0946 35.1726 41.3661 33.8228 39.7957 33.1795H38.0455H36.2953Z"
        fill="url(#paint36_radial_197_14218)" />
    <path
        d="M36.2953 33.1795C34.7249 33.8228 33.9964 35.1726 33.9964 36.642C33.9964 38.873 34.1957 40.6816 36.4266 40.6816H38.0455H39.6644C41.8953 40.6816 42.0946 38.873 42.0946 36.642C42.0946 35.1726 41.3661 33.8228 39.7957 33.1795H38.0455H36.2953Z"
        fill="url(#paint37_radial_197_14218)" />
    <path
        d="M36.2953 33.1795C34.7249 33.8228 33.9964 35.1726 33.9964 36.642C33.9964 38.873 34.1957 40.6816 36.4266 40.6816H38.0455H39.6644C41.8953 40.6816 42.0946 38.873 42.0946 36.642C42.0946 35.1726 41.3661 33.8228 39.7957 33.1795H38.0455H36.2953Z"
        fill="url(#paint38_radial_197_14218)" />
    <g clip-path="url(#clip1_197_14218)">
        <path
            d="M89.8 14.5C91.032 14.5 92.264 14.5 93.496 14.5C94.4301 17.4954 95.3647 20.4907 96.2988 23.4855C96.399 23.3801 96.4349 23.2834 96.4657 23.1849C97.0038 21.4579 97.5431 19.7315 98.0779 18.0039C98.4397 16.8375 98.7942 15.6681 99.152 14.5C100.384 14.5 101.616 14.5 102.848 14.5C102.818 14.5811 102.785 14.6604 102.759 14.7432C101.263 19.5496 99.7663 24.356 98.2717 29.1629C98.2375 29.2718 98.2235 29.3876 98.2 29.5H94.504C93.5705 26.5046 92.637 23.5093 91.7029 20.5139C91.6066 20.6112 91.5713 20.6981 91.5433 20.7873C91.0197 22.468 90.495 24.1486 89.9742 25.8305C89.5956 27.0525 89.2232 28.2763 88.848 29.4994H85.152C84.9515 28.838 84.755 28.1749 84.55 27.5147C83.2021 23.1763 81.853 18.8384 80.504 14.5C81.736 14.5 82.968 14.5 84.2 14.5C84.2235 14.6129 84.2375 14.7282 84.2717 14.8376C85.1363 17.621 86.0026 20.4044 86.8695 23.1867C86.8986 23.2799 86.9401 23.3691 87.0045 23.5324C87.0672 23.3627 87.1042 23.2764 87.1322 23.1867C87.999 20.4039 88.8654 17.621 89.7294 14.8371C89.7636 14.7282 89.777 14.6124 89.8006 14.4994L89.8 14.5Z"
            fill="black" fill-opacity="0.85" />
        <path
            d="M72.664 14.5C73.168 14.5 73.672 14.5 74.176 14.5C74.2662 14.5208 74.3558 14.5475 74.447 14.562C77.9347 15.1174 80.5802 18.1417 80.6737 21.682C80.7728 25.4349 78.3704 28.6087 74.8598 29.3622C74.6324 29.4108 74.4039 29.4542 74.1754 29.5H72.6634C72.5727 29.4797 72.4831 29.4537 72.3913 29.4398C68.9809 28.9162 66.3259 25.9666 66.1652 22.5212C65.9899 18.7585 68.2635 15.5593 71.7327 14.694C72.0407 14.617 72.3538 14.5643 72.664 14.5ZM69.701 22.0081C69.7033 24.1226 71.3637 25.8409 73.4077 25.8432C75.4601 25.8461 77.1373 24.1122 77.1334 21.9919C77.1294 19.8832 75.4595 18.1585 73.4206 18.1568C71.3626 18.155 69.6994 19.8774 69.701 22.0081Z"
            fill="black" fill-opacity="0.85" />
        <path
            d="M57.152 14.4999H64.432C64.4331 17.0065 64.4404 19.5131 64.4331 22.0202C64.4236 25.2982 62.3746 28.1789 59.35 29.1576C58.8723 29.3123 58.3706 29.3881 57.8806 29.5005H56.4246C56.3344 29.4802 56.2442 29.4548 56.153 29.4409C55.2508 29.3019 54.3817 29.0389 53.6094 28.5351C53.0461 28.1667 52.5348 27.7138 52 27.2992C52 27.28 52 27.2603 52 27.2412C52.7067 26.5132 53.4134 25.7858 54.1202 25.0573C54.4226 24.7457 54.4164 24.7532 54.7563 25.0266C55.995 26.0221 57.3592 26.2254 58.7743 25.542C60.1799 24.8632 60.9152 23.6603 60.9533 22.0486C60.9813 20.8636 60.9606 19.677 60.9589 18.4908C60.9589 18.1103 60.9331 18.0849 60.5562 18.0837C59.5398 18.0814 58.524 18.0773 57.5076 18.0854C57.2427 18.0878 57.1458 17.9858 57.1486 17.7102C57.1587 16.6399 57.1526 15.5696 57.1526 14.4993L57.152 14.4999Z"
            fill="black" fill-opacity="0.85" />
        <path
            d="M104.528 29.5C104.533 29.2012 104.543 28.9023 104.543 28.6041C104.544 26.4919 104.544 24.3803 104.544 22.2681C104.544 21.843 104.745 21.6303 105.147 21.6299C106.098 21.6282 107.049 21.6259 108 21.6236V29.5H104.528Z"
            fill="black" fill-opacity="0.85" />
        <path
            d="M108 18.1486C107.003 18.1469 106.005 18.1452 105.008 18.1423C104.554 18.1411 104.546 18.1319 104.544 17.6512C104.539 16.6006 104.534 15.5506 104.529 14.5C105.686 14.5 106.843 14.5 108.001 14.5V18.1486H108Z"
            fill="black" fill-opacity="0.85" />
    </g>
    <path
        d="M120.215 29.7211C119.582 29.7211 119.009 29.6041 118.498 29.3699C117.986 29.1314 117.58 28.7867 117.281 28.3358C116.986 27.8848 116.839 27.332 116.839 26.6773C116.839 26.1136 116.947 25.6496 117.164 25.2854C117.381 24.9212 117.674 24.6328 118.042 24.4204C118.411 24.2079 118.823 24.0475 119.278 23.9391C119.733 23.8307 120.197 23.7483 120.67 23.6919C121.268 23.6225 121.754 23.5662 122.127 23.5228C122.5 23.4751 122.771 23.3992 122.94 23.2952C123.109 23.1911 123.193 23.022 123.193 22.7879V22.7423C123.193 22.1743 123.033 21.7342 122.712 21.422C122.396 21.1098 121.923 20.9537 121.294 20.9537C120.64 20.9537 120.124 21.099 119.746 21.3895C119.373 21.6757 119.115 21.9944 118.972 22.3456L117.145 21.9293C117.362 21.3223 117.678 20.8323 118.094 20.4594C118.515 20.0822 118.998 19.809 119.545 19.6399C120.091 19.4665 120.666 19.3798 121.268 19.3798C121.667 19.3798 122.09 19.4275 122.537 19.5229C122.987 19.6139 123.408 19.783 123.798 20.0302C124.193 20.2773 124.516 20.6307 124.767 21.0903C125.019 21.5456 125.145 22.1375 125.145 22.8659V29.5H123.245V28.1342H123.167C123.042 28.3856 122.853 28.6328 122.602 28.8756C122.35 29.1184 122.027 29.3201 121.632 29.4805C121.238 29.6409 120.765 29.7211 120.215 29.7211ZM120.637 28.1602C121.175 28.1602 121.635 28.0539 122.016 27.8415C122.402 27.629 122.695 27.3515 122.894 27.009C123.098 26.6621 123.2 26.2914 123.2 25.8968V24.609C123.131 24.6784 122.996 24.7434 122.797 24.8041C122.602 24.8605 122.378 24.9103 122.127 24.9537C121.875 24.9927 121.63 25.0296 121.392 25.0643C121.153 25.0946 120.954 25.1206 120.793 25.1423C120.416 25.19 120.072 25.2702 119.759 25.383C119.451 25.4957 119.204 25.6583 119.018 25.8708C118.836 26.0789 118.745 26.3564 118.745 26.7033C118.745 27.1846 118.922 27.5488 119.278 27.796C119.634 28.0388 120.087 28.1602 120.637 28.1602ZM131.943 29.7016C130.976 29.7016 130.143 29.4827 129.445 29.0447C128.752 28.6024 128.218 27.9932 127.845 27.2171C127.473 26.441 127.286 25.5521 127.286 24.5505C127.286 23.5358 127.477 22.6404 127.858 21.8643C128.24 21.0838 128.778 20.4746 129.471 20.0367C130.165 19.5987 130.983 19.3798 131.923 19.3798C132.682 19.3798 133.359 19.5207 133.953 19.8025C134.547 20.08 135.026 20.4703 135.39 20.9733C135.759 21.4762 135.978 22.0638 136.047 22.7358H134.154C134.05 22.2675 133.812 21.8643 133.439 21.5261C133.07 21.1879 132.576 21.0188 131.956 21.0188C131.414 21.0188 130.939 21.1619 130.532 21.448C130.128 21.7299 129.814 22.1331 129.588 22.6578C129.363 23.1781 129.25 23.7938 129.25 24.5049C129.25 25.2334 129.361 25.8621 129.582 26.3911C129.803 26.9201 130.115 27.3298 130.519 27.6203C130.926 27.9109 131.405 28.0561 131.956 28.0561C132.325 28.0561 132.658 27.9889 132.958 27.8545C133.261 27.7157 133.515 27.5184 133.719 27.2626C133.927 27.0068 134.072 26.6989 134.154 26.3391H136.047C135.978 26.9851 135.767 27.5618 135.416 28.0691C135.065 28.5764 134.594 28.9753 134.005 29.2659C133.419 29.5564 132.732 29.7016 131.943 29.7016ZM141.034 29.7211C140.401 29.7211 139.828 29.6041 139.317 29.3699C138.805 29.1314 138.4 28.7867 138.101 28.3358C137.806 27.8848 137.658 27.332 137.658 26.6773C137.658 26.1136 137.767 25.6496 137.984 25.2854C138.2 24.9212 138.493 24.6328 138.862 24.4204C139.23 24.2079 139.642 24.0475 140.097 23.9391C140.553 23.8307 141.017 23.7483 141.489 23.6919C142.088 23.6225 142.573 23.5662 142.946 23.5228C143.319 23.4751 143.59 23.3992 143.759 23.2952C143.928 23.1911 144.013 23.022 144.013 22.7879V22.7423C144.013 22.1743 143.852 21.7342 143.531 21.422C143.215 21.1098 142.742 20.9537 142.114 20.9537C141.459 20.9537 140.943 21.099 140.566 21.3895C140.193 21.6757 139.935 21.9944 139.792 22.3456L137.964 21.9293C138.181 21.3223 138.497 20.8323 138.914 20.4594C139.334 20.0822 139.818 19.809 140.364 19.6399C140.91 19.4665 141.485 19.3798 142.088 19.3798C142.486 19.3798 142.909 19.4275 143.356 19.5229C143.807 19.6139 144.227 19.783 144.618 20.0302C145.012 20.2773 145.335 20.6307 145.587 21.0903C145.838 21.5456 145.964 22.1375 145.964 22.8659V29.5H144.065V28.1342H143.987C143.861 28.3856 143.672 28.6328 143.421 28.8756C143.169 29.1184 142.846 29.3201 142.452 29.4805C142.057 29.6409 141.585 29.7211 141.034 29.7211ZM141.457 28.1602C141.994 28.1602 142.454 28.0539 142.836 27.8415C143.221 27.629 143.514 27.3515 143.714 27.009C143.917 26.6621 144.019 26.2914 144.019 25.8968V24.609C143.95 24.6784 143.815 24.7434 143.616 24.8041C143.421 24.8605 143.198 24.9103 142.946 24.9537C142.695 24.9927 142.45 25.0296 142.211 25.0643C141.973 25.0946 141.773 25.1206 141.613 25.1423C141.236 25.19 140.891 25.2702 140.579 25.383C140.271 25.4957 140.024 25.6583 139.837 25.8708C139.655 26.0789 139.564 26.3564 139.564 26.7033C139.564 27.1846 139.742 27.5488 140.097 27.796C140.453 28.0388 140.906 28.1602 141.457 28.1602ZM152.294 29.6951C151.487 29.6951 150.768 29.4892 150.135 29.0772C149.506 28.661 149.012 28.0691 148.652 27.3016C148.296 26.5298 148.118 25.6041 148.118 24.5244C148.118 23.4448 148.298 22.5212 148.658 21.7537C149.022 20.9863 149.521 20.3987 150.154 19.9911C150.787 19.5836 151.505 19.3798 152.307 19.3798C152.927 19.3798 153.426 19.4838 153.803 19.692C154.184 19.8958 154.479 20.1342 154.687 20.4074C154.9 20.6806 155.065 20.9212 155.182 21.1293H155.299V16.1798H157.244V29.5H155.344V27.9455H155.182C155.065 28.158 154.896 28.4008 154.674 28.674C154.458 28.9472 154.158 29.1856 153.777 29.3894C153.395 29.5932 152.901 29.6951 152.294 29.6951ZM152.723 28.0366C153.283 28.0366 153.755 27.8892 154.141 27.5943C154.531 27.2951 154.826 26.8811 155.026 26.3521C155.229 25.8231 155.331 25.2074 155.331 24.5049C155.331 23.8112 155.232 23.2041 155.032 22.6838C154.833 22.1635 154.54 21.7581 154.154 21.4676C153.768 21.177 153.291 21.0318 152.723 21.0318C152.138 21.0318 151.65 21.1835 151.26 21.4871C150.87 21.7906 150.575 22.2047 150.375 22.7293C150.18 23.254 150.083 23.8459 150.083 24.5049C150.083 25.1727 150.182 25.7732 150.382 26.3065C150.581 26.8399 150.876 27.2626 151.266 27.5748C151.661 27.8827 152.147 28.0366 152.723 28.0366ZM164.325 29.7016C163.34 29.7016 162.493 29.4913 161.782 29.0707C161.075 28.6458 160.529 28.0496 160.143 27.2821C159.761 26.5103 159.57 25.6063 159.57 24.57C159.57 23.5467 159.761 22.6448 160.143 21.8643C160.529 21.0838 161.066 20.4746 161.756 20.0367C162.449 19.5987 163.26 19.3798 164.188 19.3798C164.752 19.3798 165.298 19.473 165.827 19.6594C166.356 19.8459 166.831 20.1386 167.252 20.5375C167.672 20.9364 168.004 21.4545 168.247 22.0919C168.489 22.725 168.611 23.4946 168.611 24.4009V25.0903H160.669V23.6334H166.705C166.705 23.1217 166.601 22.6686 166.393 22.2741C166.185 21.8751 165.892 21.5608 165.515 21.331C165.142 21.1012 164.704 20.9863 164.201 20.9863C163.655 20.9863 163.178 21.1207 162.77 21.3895C162.367 21.654 162.055 22.0009 161.834 22.4301C161.617 22.8551 161.509 23.3169 161.509 23.8155V24.9537C161.509 25.6214 161.626 26.1895 161.86 26.6578C162.098 27.126 162.43 27.4838 162.855 27.7309C163.28 27.9737 163.776 28.0951 164.344 28.0951C164.713 28.0951 165.049 28.0431 165.352 27.939C165.656 27.8306 165.918 27.6702 166.139 27.4577C166.36 27.2453 166.53 26.983 166.647 26.6708L168.487 27.0025C168.34 27.5445 168.075 28.0193 167.694 28.4268C167.317 28.8301 166.842 29.1444 166.269 29.3699C165.701 29.5911 165.053 29.7016 164.325 29.7016ZM170.769 29.5V19.5099H172.635V21.1359H172.759C172.967 20.5852 173.307 20.1559 173.78 19.8481C174.253 19.5359 174.818 19.3798 175.477 19.3798C176.145 19.3798 176.705 19.5359 177.156 19.8481C177.611 20.1603 177.947 20.5895 178.164 21.1359H178.268C178.506 20.6025 178.886 20.1776 179.406 19.8611C179.926 19.5402 180.546 19.3798 181.266 19.3798C182.172 19.3798 182.912 19.6638 183.484 20.2318C184.061 20.7998 184.349 21.6562 184.349 22.8009V29.5H182.404V22.983C182.404 22.3066 182.22 21.8166 181.851 21.5131C181.483 21.2096 181.043 21.0578 180.531 21.0578C179.898 21.0578 179.406 21.2529 179.055 21.6432C178.703 22.0291 178.528 22.5255 178.528 23.1326V29.5H176.59V22.8594C176.59 22.3174 176.421 21.8816 176.082 21.5521C175.744 21.2226 175.304 21.0578 174.762 21.0578C174.393 21.0578 174.053 21.1554 173.741 21.3505C173.433 21.5413 173.184 21.8079 172.993 22.1505C172.806 22.493 172.713 22.8898 172.713 23.3407V29.5H170.769ZM187.827 33.2463C187.536 33.2463 187.272 33.2225 187.033 33.1748C186.795 33.1314 186.617 33.0837 186.5 33.0317L186.968 31.4382C187.324 31.5336 187.64 31.5748 187.918 31.5618C188.196 31.5488 188.44 31.4447 188.653 31.2496C188.87 31.0545 189.061 30.7358 189.225 30.2935L189.466 29.6301L185.811 19.5099H187.892L190.422 27.2626H190.526L193.056 19.5099H195.144L191.027 30.8333C190.836 31.3536 190.593 31.7937 190.298 32.1536C190.004 32.5179 189.652 32.791 189.245 32.9731C188.837 33.1552 188.365 33.2463 187.827 33.2463Z"
        fill="black" fill-opacity="0.5" />
    <defs>
        <linearGradient id="paint0_linear_197_14218" x1="44.367" y1="26.875" x2="-3.77855" y2="26.875"
            gradientUnits="userSpaceOnUse">
            <stop stop-color="#68518B" />
            <stop stop-color="#A468FF" />
            <stop offset="0.44375" stop-color="#9A6BE2" />
            <stop offset="0.909375" stop-color="#5C329E" />
        </linearGradient>
        <linearGradient id="paint1_linear_197_14218" x1="23.392" y1="42.3451" x2="23.392" y2="38.0985"
            gradientUnits="userSpaceOnUse">
            <stop offset="0.213939" stop-color="#8265AE" />
            <stop offset="0.627716" stop-color="#8265AE" stop-opacity="0" />
        </linearGradient>
        <linearGradient id="paint2_linear_197_14218" x1="36.0232" y1="41.25" x2="35.0264" y2="36.8094"
            gradientUnits="userSpaceOnUse">
            <stop offset="0.213939" stop-color="#8265AE" />
            <stop offset="0.669614" stop-color="#8265AE" stop-opacity="0" />
        </linearGradient>
        <linearGradient id="paint3_linear_197_14218" x1="38.0906" y1="40.6763" x2="34.5235" y2="37.2357"
            gradientUnits="userSpaceOnUse">
            <stop offset="0.213939" stop-color="#8265AE" />
            <stop offset="0.669614" stop-color="#8265AE" stop-opacity="0" />
        </linearGradient>
        <linearGradient id="paint4_linear_197_14218" x1="6.47216" y1="42.5592" x2="8.40902" y2="36.2069"
            gradientUnits="userSpaceOnUse">
            <stop offset="0.287504" stop-color="#8265AE" />
            <stop offset="0.510172" stop-color="#8265AE" stop-opacity="0" />
        </linearGradient>
        <linearGradient id="paint5_linear_197_14218" x1="3.02133" y1="41.25" x2="6.74193" y2="37.0022"
            gradientUnits="userSpaceOnUse">
            <stop offset="0.213939" stop-color="#8265AE" />
            <stop offset="0.494627" stop-color="#8265AE" stop-opacity="0" />
        </linearGradient>
        <linearGradient id="paint6_linear_197_14218" x1="41.542" y1="39.0375" x2="36.7049" y2="36.4091"
            gradientUnits="userSpaceOnUse">
            <stop offset="0.213939" stop-color="#8265AE" />
            <stop offset="0.565866" stop-color="#8265AE" stop-opacity="0" />
        </linearGradient>
        <linearGradient id="paint7_linear_197_14218" x1="47" y1="27.3718" x2="41.4642" y2="25.7656"
            gradientUnits="userSpaceOnUse">
            <stop offset="0.213939" stop-color="#8265AE" />
            <stop offset="0.457665" stop-color="#8265AE" stop-opacity="0" />
        </linearGradient>
        <linearGradient id="paint8_linear_197_14218" x1="48.1795" y1="24.3333" x2="42.5156" y2="24.0118"
            gradientUnits="userSpaceOnUse">
            <stop offset="0.213939" stop-color="#8265AE" />
            <stop offset="0.457665" stop-color="#8265AE" stop-opacity="0" />
        </linearGradient>
        <linearGradient id="paint9_linear_197_14218" x1="50.2778" y1="10.1279" x2="-0.41128" y2="10.1279"
            gradientUnits="userSpaceOnUse">
            <stop stop-color="#655676" />
            <stop offset="1" stop-color="#2D2635" />
        </linearGradient>
        <linearGradient id="paint10_linear_197_14218" x1="39.1523" y1="19.6512" x2="36.8673" y2="15.2817"
            gradientUnits="userSpaceOnUse">
            <stop offset="0.0945294" stop-color="#5E417D" />
            <stop offset="0.305542" stop-color="#5E417D" stop-opacity="0.55" />
            <stop offset="0.63958" stop-color="white" stop-opacity="0.21" />
            <stop offset="1" stop-color="#5E417D" stop-opacity="0" />
        </linearGradient>
        <linearGradient id="paint11_linear_197_14218" x1="3.36065" y1="21.0692" x2="7.58072" y2="12.598"
            gradientUnits="userSpaceOnUse">
            <stop offset="0.0602626" stop-color="#553578" stop-opacity="0.92" />
            <stop offset="0.190937" stop-color="#271D34" stop-opacity="0.72" />
            <stop offset="0.289017" stop-color="#281D38" stop-opacity="0.78" />
            <stop offset="0.477925" stop-color="#281D38" stop-opacity="0" />
        </linearGradient>
        <radialGradient id="paint12_radial_197_14218" cx="0" cy="0" r="1" gradientUnits="userSpaceOnUse"
            gradientTransform="translate(20.1178 26.293) rotate(177.31) scale(3.65046 3.05118)">
            <stop stop-color="#291E39" />
            <stop offset="0.592241" stop-color="#2B213A" stop-opacity="0" />
        </radialGradient>
        <radialGradient id="paint13_radial_197_14218" cx="0" cy="0" r="1" gradientUnits="userSpaceOnUse"
            gradientTransform="translate(21.1475 28.4984) rotate(62.0641) scale(2.39488 6.85535)">
            <stop offset="0.472951" stop-color="#5D417A" stop-opacity="0.99" />
            <stop offset="1" stop-color="#5D417B" stop-opacity="0" />
        </radialGradient>
        <radialGradient id="paint14_radial_197_14218" cx="0" cy="0" r="1" gradientUnits="userSpaceOnUse"
            gradientTransform="translate(20.7588 29.281) rotate(74.1688) scale(2.3099 11.0906)">
            <stop offset="0.472951" stop-color="#704999" stop-opacity="0.99" />
            <stop offset="1" stop-color="#704999" stop-opacity="0" />
        </radialGradient>
        <linearGradient id="paint15_linear_197_14218" x1="43.7041" y1="2.75554" x2="42.3624" y2="5.4147"
            gradientUnits="userSpaceOnUse">
            <stop offset="0.0945294" stop-color="#5E417D" />
            <stop offset="0.622903" stop-color="#5E417D" stop-opacity="0" />
        </linearGradient>
        <linearGradient id="paint16_linear_197_14218" x1="54.0732" y1="9.50191" x2="50.9659" y2="10.5843"
            gradientUnits="userSpaceOnUse">
            <stop offset="0.220071" stop-color="#5E417D" />
            <stop offset="0.547178" stop-color="#5E417D" stop-opacity="0" />
        </linearGradient>
        <radialGradient id="paint17_radial_197_14218" cx="0" cy="0" r="1" gradientUnits="userSpaceOnUse"
            gradientTransform="translate(26.61 11.1598) rotate(111.317) scale(3.29553 11.9221)">
            <stop offset="0.643211" stop-color="#2F243E" stop-opacity="0.82" />
            <stop offset="1" stop-color="#443149" stop-opacity="0" />
        </radialGradient>
        <radialGradient id="paint18_radial_197_14218" cx="0" cy="0" r="1" gradientUnits="userSpaceOnUse"
            gradientTransform="translate(28.3866 11.7357) rotate(123.659) scale(3.02289 13.7123)">
            <stop offset="0.535842" stop-color="#2F243E" stop-opacity="0.82" />
            <stop offset="0.698285" stop-color="#2F243E" stop-opacity="0.56" />
            <stop offset="1" stop-color="#443149" stop-opacity="0" />
        </radialGradient>
        <radialGradient id="paint19_radial_197_14218" cx="0" cy="0" r="1" gradientUnits="userSpaceOnUse"
            gradientTransform="translate(28.3189 12.4219) rotate(122.793) scale(3.09063 16.3368)">
            <stop offset="0.535842" stop-color="#2F243E" stop-opacity="0.82" />
            <stop offset="0.802784" stop-color="#2F243E" stop-opacity="0" />
        </radialGradient>
        <radialGradient id="paint20_radial_197_14218" cx="0" cy="0" r="1" gradientUnits="userSpaceOnUse"
            gradientTransform="translate(36.0201 18.8995) rotate(168.236) scale(3.04711 10.5875)">
            <stop offset="0.0687201" stop-color="#463459" />
            <stop offset="0.376541" stop-color="#463459" stop-opacity="0.44" />
            <stop offset="0.500285" stop-color="#463459" stop-opacity="0" />
        </radialGradient>
        <radialGradient id="paint21_radial_197_14218" cx="0" cy="0" r="1" gradientUnits="userSpaceOnUse"
            gradientTransform="translate(36.1736 19.4214) rotate(178.187) scale(3.1382 4.68597)">
            <stop offset="0.525084" stop-color="#463459" stop-opacity="0.65" />
            <stop offset="0.767696" stop-color="#463459" stop-opacity="0" />
        </radialGradient>
        <radialGradient id="paint22_radial_197_14218" cx="0" cy="0" r="1" gradientUnits="userSpaceOnUse"
            gradientTransform="translate(40.4974 35.4026) rotate(137.337) scale(5.02688 5.41356)">
            <stop stop-color="#FFCC6C" />
            <stop offset="1" stop-color="#F49041" />
        </radialGradient>
        <radialGradient id="paint23_radial_197_14218" cx="0" cy="0" r="1" gradientUnits="userSpaceOnUse"
            gradientTransform="translate(41.1913 37.5757) rotate(-157.449) scale(9.02196 7.25658)">
            <stop offset="0.6" stop-color="#B25D41" stop-opacity="0" />
            <stop offset="0.910505" stop-color="#B25D41" />
        </radialGradient>
        <radialGradient id="paint24_radial_197_14218" cx="0" cy="0" r="1" gradientUnits="userSpaceOnUse"
            gradientTransform="translate(34.9069 39.4822) rotate(-8.85796) scale(5.5027 2.67492)">
            <stop stop-color="#FD805E" />
            <stop offset="1" stop-color="#FD805E" stop-opacity="0" />
        </radialGradient>
        <linearGradient id="paint25_linear_197_14218" x1="33.7065" y1="45.5916" x2="37.3783" y2="46.1902"
            gradientUnits="userSpaceOnUse">
            <stop stop-color="#D17047" />
            <stop offset="1" stop-color="#D17047" stop-opacity="0" />
        </linearGradient>
        <radialGradient id="paint26_radial_197_14218" cx="0" cy="0" r="1" gradientUnits="userSpaceOnUse"
            gradientTransform="translate(40.344 38.6348) rotate(90) scale(10.5917 3.24812)">
            <stop offset="0.566667" stop-color="#FFBC6E" />
            <stop offset="1" stop-color="#FFBC6E" stop-opacity="0" />
        </radialGradient>
        <radialGradient id="paint27_radial_197_14218" cx="0" cy="0" r="1" gradientUnits="userSpaceOnUse"
            gradientTransform="translate(36.2485 51.8923) rotate(-77.3666) scale(6.45699 7.4559)">
            <stop offset="0.165333" stop-color="#FF697E" />
            <stop offset="1" stop-color="#FF697E" stop-opacity="0" />
        </radialGradient>
        <linearGradient id="paint28_linear_197_14218" x1="23.8075" y1="7.27815" x2="38.6415" y2="36.2044"
            gradientUnits="userSpaceOnUse">
            <stop stop-color="#D3A543" />
            <stop offset="1" stop-color="#FFBA62" />
        </linearGradient>
        <radialGradient id="paint29_radial_197_14218" cx="0" cy="0" r="1" gradientUnits="userSpaceOnUse"
            gradientTransform="translate(19.9852 5.34085) rotate(26.9588) scale(9.43288 5.88037)">
            <stop stop-color="#D0A745" />
            <stop offset="1" stop-color="#D0A745" stop-opacity="0" />
        </radialGradient>
        <linearGradient id="paint30_linear_197_14218" x1="40.7873" y1="24.1135" x2="37.8881" y2="24.331"
            gradientUnits="userSpaceOnUse">
            <stop stop-color="#FFD574" />
            <stop offset="1" stop-color="#FFD574" stop-opacity="0" />
        </linearGradient>
        <linearGradient id="paint31_linear_197_14218" x1="35.4962" y1="12.2628" x2="34.3727" y2="14.401"
            gradientUnits="userSpaceOnUse">
            <stop stop-color="#FFD574" />
            <stop offset="1" stop-color="#FFD574" stop-opacity="0" />
        </linearGradient>
        <radialGradient id="paint32_radial_197_14218" cx="0" cy="0" r="1" gradientUnits="userSpaceOnUse"
            gradientTransform="translate(35.962 32.6829) rotate(-90.2535) scale(14.8933 2.18223)">
            <stop stop-color="#A84A17" />
            <stop offset="1" stop-color="#D07442" stop-opacity="0" />
        </radialGradient>
        <radialGradient id="paint33_radial_197_14218" cx="0" cy="0" r="1" gradientUnits="userSpaceOnUse"
            gradientTransform="translate(36.3612 23.8613) rotate(-90.4692) scale(8.51003 1.74241)">
            <stop stop-color="#A84A17" />
            <stop offset="1" stop-color="#D07442" stop-opacity="0" />
        </radialGradient>
        <radialGradient id="paint34_radial_197_14218" cx="0" cy="0" r="1" gradientUnits="userSpaceOnUse"
            gradientTransform="translate(25.2163 12.1222) rotate(25.0263) scale(15.1465 0.713496)">
            <stop offset="0.140165" stop-color="#A84A17" />
            <stop offset="0.640759" stop-color="#D07442" stop-opacity="0" />
        </radialGradient>
        <radialGradient id="paint35_radial_197_14218" cx="0" cy="0" r="1" gradientUnits="userSpaceOnUse"
            gradientTransform="translate(29.6809 21.147) rotate(-14.8987) scale(9.99736 8.35153)">
            <stop offset="0.60255" stop-color="#A84A17" />
            <stop offset="0.798021" stop-color="#D07442" stop-opacity="0" />
        </radialGradient>
        <radialGradient id="paint36_radial_197_14218" cx="0" cy="0" r="1" gradientUnits="userSpaceOnUse"
            gradientTransform="translate(40.5126 35.4026) rotate(137.404) scale(5.03325 5.41937)">
            <stop stop-color="#FFCC6C" />
            <stop offset="1" stop-color="#F49041" />
        </radialGradient>
        <radialGradient id="paint37_radial_197_14218" cx="0" cy="0" r="1" gradientUnits="userSpaceOnUse"
            gradientTransform="translate(41.2082 37.5757) rotate(-157.497) scale(9.03998 7.25908)">
            <stop offset="0.6" stop-color="#B25D41" stop-opacity="0" />
            <stop offset="0.910505" stop-color="#B25D41" />
        </radialGradient>
        <radialGradient id="paint38_radial_197_14218" cx="0" cy="0" r="1" gradientUnits="userSpaceOnUse"
            gradientTransform="translate(34.9091 39.4822) rotate(-8.83759) scale(5.51528 2.67507)">
            <stop stop-color="#FD805E" />
            <stop offset="1" stop-color="#FD805E" stop-opacity="0" />
        </radialGradient>
        <clipPath id="clip0_197_14218">
            <rect width="40" height="40" rx="10" fill="white" />
        </clipPath>
        <clipPath id="clip1_197_14218">
            <rect width="56" height="15" fill="white" transform="translate(52 14.5)" />
        </clipPath>
    </defs>
</svg>